<svg xmlns="http://www.w3.org/2000/svg" viewBox="0 0 769.64 602.91"><defs><style>.cls-1{fill:#39c;}.cls-2{fill:#f6c;}.cls-3{fill:#63c;}.cls-4{fill:#f90;}.cls-5{fill:#c39;}.cls-6{fill:#c60;}.cls-7{fill:#c90;}.cls-8{fill:#303;}.cls-9{fill:#c3f;}.cls-10{fill:#33c;}.cls-11,.cls-14{fill:none;stroke-miterlimit:10;}.cls-11{stroke:#c06;stroke-width:5px;}.cls-12{fill:#c06;}.cls-13{fill:#f9c;}.cls-14{stroke:#33c;stroke-width:7px;}.cls-15{fill:#06c;}</style></defs><title>maaaAsset 1</title><g id="Layer_2" data-name="Layer 2"><g id="Layer_1-2" data-name="Layer 1"><path class="cls-1" d="M409.73,395.72l1.37,2.95c7.13,15.45-.35,34.1-16.73,41.67L313,477.92c-16.38,7.57-35.44,1.18-42.58-14.27l-11-23.85c-7.13-15.45.35-34.1,16.73-41.67L356.94,362C385.55,348.79,397.26,368.73,409.73,395.72Z"/><rect class="cls-2" x="637.7" y="449.4" width="138" height="16.86" rx="8.43" transform="translate(-128.91 353.93) rotate(-25.85)"/><rect class="cls-2" x="643.66" y="437.15" width="138" height="20.63" rx="10.31" transform="translate(-117.72 583.75) rotate(-41.44)"/><rect class="cls-2" x="635.99" y="433.1" width="138" height="21.32" rx="10.66" transform="translate(-56.74 780.96) rotate(-56.07)"/><path class="cls-3" d="M367.13,160.36s-7.28,2.51-7.28,30.51,13.72,67.48,13.72,67.48l7.28-98.48Z"/><path class="cls-3" d="M595.08,196.13a10.08,10.08,0,0,0-7.69,1.45c-4.19,2.86-10.07,9.8-14,26.69-2.52,10.93-2.24,24.3-.91,36.68,1.16,10.83,16.2,12.57,19.86,2.32l18.55-51.93a10.26,10.26,0,0,0-7.58-13.5Z"/><path class="cls-4" d="M309.48,518.89l-2.75,1.35a29.09,29.09,0,0,1-39-13.23l-35.28-71.59a29.09,29.09,0,0,1,13.23-39l22.26-11a29.1,29.1,0,0,1,39,13.24l33.91,71.14C353.27,495.05,334.67,506.47,309.48,518.89Z"/><path class="cls-4" d="M281,602.8h0a26.41,26.41,0,0,1-24.72-28l5.29-85a26.4,26.4,0,0,1,28-24.72l30.14,1.88a26.4,26.4,0,0,1,24.72,28L341,549.82A56.6,56.6,0,0,1,281,602.8Z"/><path class="cls-1" d="M633.48,516.89l-2.75,1.35a29.09,29.09,0,0,1-39-13.23l-35.28-71.59a29.09,29.09,0,0,1,13.23-39l22.26-11a29.1,29.1,0,0,1,39,13.24l33.91,71.14C677.27,493.05,658.67,504.47,633.48,516.89Z"/><path class="cls-1" d="M734.05,441h0a20.39,20.39,0,0,1-1.79,28.78l-72.87,64.35a20.41,20.41,0,0,1-28.79-1.79l-15.43-17.48A20.38,20.38,0,0,1,617,486.1l55.39-48.91A43.71,43.71,0,0,1,734.05,441Z"/><rect class="cls-2" x="682.05" y="416.29" width="66.99" height="54.1" rx="25.41" transform="translate(-114.27 584.63) rotate(-41.44)"/><path class="cls-4" d="M59.28,523.89,62,525.24A29.09,29.09,0,0,0,101,512l35.28-71.59a29.1,29.1,0,0,0-13.23-39l-22.26-11a29.1,29.1,0,0,0-39,13.24L27.91,474.87C15.5,500.05,34.1,511.47,59.28,523.89Z"/><path class="cls-4" d="M45.26,593.34h0A26.4,26.4,0,0,0,79,577.43l21.46-59.7A26.41,26.41,0,0,0,84.58,484L56.16,473.74a26.4,26.4,0,0,0-33.77,15.91L11.14,520.94A56.6,56.6,0,0,0,45.26,593.34Z"/><circle class="cls-3" cx="118.85" cy="243.87" r="77"/><circle class="cls-3" cx="109.85" cy="303.87" r="77"/><circle class="cls-3" cx="252.85" cy="246.87" r="77"/><circle class="cls-3" cx="264.85" cy="316.87" r="77"/><circle class="cls-3" cx="134.85" cy="320.87" r="77"/><circle class="cls-5" cx="275.85" cy="262.87" r="23"/><circle class="cls-5" cx="585.85" cy="254.87" r="23"/><circle class="cls-5" cx="380.85" cy="254.87" r="23"/><circle class="cls-5" cx="86.85" cy="264.87" r="23"/><path class="cls-6" d="M297.89,601.87H66.73a20.67,20.67,0,0,1-20.56-22.76l18-177c2.64-25.91,45.51-46.24,97.5-46.24h40.59c51.92,0,94.76,20.27,97.49,46.15l18.71,177A20.67,20.67,0,0,1,297.89,601.87Z"/><rect class="cls-7" x="133.85" y="271.77" width="96" height="156.19" rx="48"/><rect class="cls-5" x="133.85" y="262.77" width="96" height="156.19" rx="48"/><path class="cls-2" d="M181.85,361.87h0a101,101,0,0,1-101-101V206A78.1,78.1,0,0,1,159,127.87h45.81A78.09,78.09,0,0,1,282.85,206v54.91A101,101,0,0,1,181.85,361.87Z"/><path class="cls-8" d="M176.12,106.87h7.23a99.73,99.73,0,0,1,99.73,99.73v15a1.27,1.27,0,0,1-1.27,1.27h-33.1A73.86,73.86,0,0,1,174.85,149V108.13a1.27,1.27,0,0,1,1.27-1.27Z" transform="translate(457.93 329.73) rotate(-180)"/><path class="cls-8" d="M154.71,106.87h33.1a1.27,1.27,0,0,1,1.27,1.27v15a99.73,99.73,0,0,1-99.73,99.73H82.12a1.27,1.27,0,0,1-1.27-1.27V180.73a73.86,73.86,0,0,1,73.86-73.86Z"/><path class="cls-3" d="M154.71,99.87h33.1a1.27,1.27,0,0,1,1.27,1.27v19a99.73,99.73,0,0,1-99.73,99.73H82.12a1.27,1.27,0,0,1-1.27-1.27V173.73a73.86,73.86,0,0,1,73.86-73.86Z"/><path class="cls-3" d="M176.12,99.87h7.23a99.73,99.73,0,0,1,99.73,99.73v19a1.27,1.27,0,0,1-1.27,1.27h-33.1A73.86,73.86,0,0,1,174.85,146V101.13a1.27,1.27,0,0,1,1.27-1.27Z" transform="translate(457.93 319.73) rotate(-180)"/><rect class="cls-9" x="123.26" y="267.31" width="38.45" height="12.57" rx="6.29"/><circle class="cls-10" cx="152.35" cy="250.37" r="17.5"/><path class="cls-10" d="M180.58,263l1,.68c.78.55-.45-.4.35.27.51.42,1,.85,1.5,1.29a32.26,32.26,0,0,1,3,3.17c0,.06.84,1.09.28.33.24.32.47.64.7,1,.38.54.74,1.09,1.09,1.66s.8,1.37,1.16,2.08c.16.29.3.59.44.89.06.12.55,1.21.34.73s.19.47.22.57c.15.37.29.76.41,1.14,0,.11.29,1.19.2.62,0-.33,0-.26,0,.21a1.15,1.15,0,0,1,.09-.58c.15-.39.51-.61,0-.21-.94.81.7-.39-.34.27-.68.42-1.36.85-2.06,1.24s-1.42.74-2.15,1.06c.69-.3-.42.15-.55.2-.34.13-.69.25-1,.36a28.47,28.47,0,0,1-4.9,1.11c-2.34.34-3.82,3.43-3.14,5.54.83,2.56,3,3.5,5.54,3.14a31.51,31.51,0,0,0,11.72-4.18,12.43,12.43,0,0,0,4.89-4.51c1.29-2.42,1-5.14,0-7.62a37.85,37.85,0,0,0-14.28-18.2,4.53,4.53,0,0,0-6.16,1.61,4.61,4.61,0,0,0,1.61,6.16Z"/><circle class="cls-11" cx="151.85" cy="249.87" r="30"/><rect class="cls-9" x="216.26" y="268.31" width="38.45" height="12.57" rx="6.29"/><circle class="cls-10" cx="224.85" cy="250.37" r="17.5"/><rect class="cls-10" x="129.7" y="213.41" width="45.31" height="13.1" rx="6.29" transform="translate(-22.84 17.72) rotate(-6.19)"/><rect class="cls-12" x="179.86" y="240.41" width="15.99" height="6.46"/><rect class="cls-12" x="78.85" y="243.41" width="45" height="6.46" rx="3.23"/><rect class="cls-12" x="253.85" y="243.41" width="31" height="6.46" rx="3.23"/><circle class="cls-11" cx="224.85" cy="249.87" r="30"/><rect class="cls-13" x="107.85" y="277.31" width="24.86" height="12.57" rx="6.29"/><rect class="cls-13" x="243.26" y="277.31" width="23.1" height="12.57" rx="6.29"/><rect class="cls-10" x="201.15" y="213.41" width="45.31" height="13.1" rx="6.29" transform="translate(32.79 -29.01) rotate(8)"/><path class="cls-14" d="M205.85,307.87c0,5-9.29,9-20.75,9s-20.75-4-20.75-9"/><path class="cls-15" d="M329.85,599.87h302L609.72,391c-2.87-27.1-49.61-48.36-106.3-48.36H459.17c-56.6,0-103.31,21.2-106.29,48.26Z"/><rect class="cls-5" x="429.07" y="245.23" width="104.66" height="163.35" rx="48"/><path class="cls-2" d="M472.28,350.87h18.23a101,101,0,0,0,101-101V184.25a78.1,78.1,0,0,0-78.09-78.1h-64a78.1,78.1,0,0,0-78.1,78.1v65.62A101,101,0,0,0,472.28,350.87Z"/><path class="cls-3" d="M588.62,209l22.14-.77a1.06,1.06,0,0,0,.86-1.19l-1-28.23c-1.29-37.29-26-66.7-55.19-65.69l-40.66,1.41a1.06,1.06,0,0,0-.87,1.19l.16,4.57C515.83,170.65,517.52,209.63,588.62,209Z"/><rect class="cls-9" x="501.18" y="247.89" width="41.93" height="13.15" rx="6.29" transform="translate(1044.28 508.94) rotate(180)"/><ellipse class="cls-10" cx="513.56" cy="232.26" rx="19.08" ry="18.3"/><rect class="cls-9" x="404.15" y="248.94" width="41.93" height="13.15" rx="6.29" transform="translate(850.22 511.03) rotate(180)"/><ellipse class="cls-10" cx="434.52" cy="232.26" rx="19.08" ry="18.3"/><path class="cls-10" d="M494.74,205.39l36.09,3.76a6.49,6.49,0,0,0,7.22-5.57l.13-1.12a6.35,6.35,0,0,0-5.81-6.93l-36.09-3.76a6.5,6.5,0,0,0-7.22,5.57l-.12,1.12A6.35,6.35,0,0,0,494.74,205.39Z"/><path class="cls-10" d="M418.68,209.67l35.95-4.85a6.34,6.34,0,0,0,5.58-7.1L460,196.6a6.51,6.51,0,0,0-7.4-5.35L416.7,196.1a6.33,6.33,0,0,0-5.58,7.1l.16,1.12A6.53,6.53,0,0,0,418.68,209.67Z"/><path class="cls-10" d="M478,237.51a39.62,39.62,0,0,0-15.41,19c-1,2.6-1.36,5.55.17,8a13.9,13.9,0,0,0,5.29,4.5,35,35,0,0,0,12.43,4.21c2.33.32,5-.55,5.54-3.14.48-2.11-.65-5.2-3.14-5.54a33.73,33.73,0,0,1-5.06-1.07c-.82-.25-1.63-.55-2.43-.85-1-.36.34.2-.51-.21l-1.15-.56c-.76-.39-1.51-.81-2.24-1.26-.33-.21-.67-.42-1-.65.93.68-.25-.29-.23-.3.31-.1.39.92.43,1.1,0-.54,0-.57,0-.09l.11-.42c.16-.39.26-.8.41-1.2.09-.24.19-.48.29-.72-.18.42-.21.48-.08.18a40.61,40.61,0,0,1,2.19-4.12c.41-.66.85-1.31,1.31-1.95l.34-.47c-.26.34-.3.39-.1.14s.49-.61.75-.91a33.88,33.88,0,0,1,3.3-3.37l.9-.78c.1-.08,1-.81.63-.51s.55-.39.66-.47l1.15-.78a4.5,4.5,0,0,0-4.54-7.77Z"/><path class="cls-14" d="M455.23,292.4c0,5.2,10.13,9.41,22.63,9.41s22.62-4.21,22.62-9.41"/><path class="cls-8" d="M469.81,171.17c-62.6,0-94.87-13.09-109.79-22.26a4.36,4.36,0,0,1-1.57-1.63,4.75,4.75,0,0,0,1.57,6.33c14.92,9.16,47.19,22.26,109.79,22.26,87.52,0,91.16-51.19,91.1-60.53a5,5,0,0,0-.14-1.09C559.58,129,549.21,171.17,469.81,171.17Z"/><path class="cls-3" d="M337.46,148.16a4.9,4.9,0,0,1,2-9.14,84.52,84.52,0,0,0,43.39-17.15c29-22,41-40,106-40,55.62,0,73.16,17.57,77.07,22.64a4.76,4.76,0,0,1,1,2.91c.07,9.94-4.09,64.45-104.06,64.45C391.35,171.87,354.5,157.92,337.46,148.16Z"/><rect class="cls-2" x="695.49" y="396.87" width="19.36" height="52" rx="9.68"/><path class="cls-12" d="M26.68,164.67a9.54,9.54,0,0,0-12.24,5.69L14,171.53l-1.18-.43A9.55,9.55,0,1,0,6.27,189l1.18.43,7.78,2.85L25.37,196l7-19.1A9.54,9.54,0,0,0,26.68,164.67Z"/><path class="cls-12" d="M40.68,112.67a9.54,9.54,0,0,0-12.24,5.69L28,119.53l-1.18-.43A9.55,9.55,0,1,0,20.27,137l1.18.43,7.78,2.85L39.37,144l7-19.1A9.54,9.54,0,0,0,40.68,112.67Z"/><path class="cls-12" d="M299.94,5.08a13.06,13.06,0,0,0-18.44,1l-1.14,1.28-1.28-1.14A13.05,13.05,0,1,0,261.7,25.75L263,26.9l8.46,7.54,11,9.84L301,23.51A13.05,13.05,0,0,0,299.94,5.08Z"/><path class="cls-12" d="M93.33,59.29A10.82,10.82,0,0,0,79.57,66l-.47,1.35-1.34-.47A10.83,10.83,0,1,0,70.7,87.34L72,87.8l8.89,3.07,11.58,4L100,73.06A10.83,10.83,0,0,0,93.33,59.29Z"/><path class="cls-12" d="M164.89,44.3a10.06,10.06,0,0,0-14-2.25l-1.07.78L149,41.76a10.05,10.05,0,1,0-16.29,11.79l.78,1.07,5.12,7.07,6.67,9.21,17.35-12.56A10,10,0,0,0,164.89,44.3Z"/><path class="cls-12" d="M243,40.2a13,13,0,0,0-18.36,1.94l-1.08,1.33-1.33-1.07a13.05,13.05,0,1,0-16.42,20.3l1.33,1.08L216,70.91l11.49,9.28L245,58.56A13,13,0,0,0,243,40.2Z"/><path class="cls-12" d="M362.44,73.19a9.8,9.8,0,0,0-13.6-2.64l-1.07.72-.72-1.07a9.8,9.8,0,0,0-16.25,11l.72,1.07,4.76,7.06,6.2,9.19L359.8,86.8A9.81,9.81,0,0,0,362.44,73.19Z"/><path class="cls-12" d="M538.71,16.84a13,13,0,0,0-17.83-4.77l-1.49.86-.86-1.49a13.05,13.05,0,1,0-22.6,13.06l.85,1.49,5.68,9.82,7.38,12.79,24.1-13.92A13.06,13.06,0,0,0,538.71,16.84Z"/><path class="cls-12" d="M684.11,115.88a9.8,9.8,0,0,0-11.23-8.12l-1.27.2-.21-1.27a9.8,9.8,0,0,0-19.35,3.11l.2,1.27,1.35,8.4,1.76,10.95L676,127.11A9.8,9.8,0,0,0,684.11,115.88Z"/><path class="cls-12" d="M655.11,188.88a9.8,9.8,0,0,0-11.23-8.12l-1.27.2-.21-1.27a9.8,9.8,0,1,0-19.35,3.11l.2,1.27,1.35,8.4,1.76,10.95L647,200.11A9.8,9.8,0,0,0,655.11,188.88Z"/><path class="cls-12" d="M671.11,252.88a9.8,9.8,0,0,0-11.23-8.12l-1.27.2-.21-1.27a9.8,9.8,0,1,0-19.35,3.11l.2,1.27,1.35,8.4,1.76,10.95L663,264.11A9.8,9.8,0,0,0,671.11,252.88Z"/><path class="cls-12" d="M716.11,168.88a9.8,9.8,0,0,0-11.23-8.12l-1.27.2-.21-1.27a9.8,9.8,0,1,0-19.35,3.11l.2,1.27,1.35,8.4,1.76,10.95L708,180.11A9.8,9.8,0,0,0,716.11,168.88Z"/><path class="cls-12" d="M632.52,36.66a13.06,13.06,0,0,0-17.42-6.12l-1.55.75-.74-1.55A13.06,13.06,0,0,0,589.27,41l.75,1.55,4.9,10.22,6.4,13.32,25.08-12A13.06,13.06,0,0,0,632.52,36.66Z"/><path class="cls-12" d="M372.09,21.1a8.86,8.86,0,0,0-11.75-4.35l-1.06.49-.49-1.06a8.86,8.86,0,1,0-16.1,7.41l.49,1.05,3.22,7,4.19,9.1,17.15-7.89A8.86,8.86,0,0,0,372.09,21.1Z"/><path class="cls-12" d="M454.86,10a8.78,8.78,0,0,0-11.65-4.31l-1,.48-.48-1a8.79,8.79,0,0,0-16,7.35l.48,1,3.19,6.93,4.15,9,17-7.83A8.78,8.78,0,0,0,454.86,10Z"/></g></g></svg>